General
Complete name                    : My House in Umbria.Swe_Sub.avi
Format                           : AVI
Format/Info                      : Audio Video Interleave
File size                        : 700 MiB
Duration                         : 1h 43mn
Overall bit rate                 : 950 Kbps
Writing application              : VirtualDubMod 1.5.4.1 (build 2178/release)
Writing library                  : VirtualDubMod build 2178/release

Video

Format                           : MPEG-4 Visual
Codec ID                         : XVID
Duration                         : 1h 43mn
Bit rate                         : 827 Kbps
Width                            : 592 pixels
Height                           : 336 pixels
Display aspect ratio             : 16:9
Frame rate                       : 25.000 fps
Resolution                       : 8 bits
Colorimetry                      : 4:2:0
Scan type                        : Progressive
Bits/(Pixel*Frame)               : 0.166
Stream size                      : 609 MiB (87%)
Writing library                  : XviD 1.2.0.dev47 (UTC 2006-11-01)

Audio

ID                               : 1
Format                           : MPEG Audio
Codec ID                         : 55
Codec ID/Hint                    : MP3
Duration                         : 1h 43mn
Bit rate mode                    : Variable
Bit rate                         : 111 Kbps
Nominal bit rate                 : 128 Kbps
Channel(s)                       : 2 channels
Sampling rate                    : 48.0 KHz
Stream size                      : 81.7 MiB (12%)

Language                         : English

